<svg width="135" height="40" viewBox="0 0 135 40" fill="none" xmlns="http://www.w3.org/2000/svg">
<path fill-rule="evenodd" clip-rule="evenodd" d="M0 12.593V12.693L22.823 23.28L45.726 12.656V12.629L22.823 2.006L0 12.593ZM8.228 12.643L22.823 5.873L37.42 12.643L22.823 19.413L8.228 12.643ZM22.823 27.393L0 16.962V20.819L22.823 31.272L45.726 20.784V16.926L22.823 27.392V27.393ZM22.823 35.215L0 24.785V28.643L22.823 39.097L45.726 28.607V24.75L22.823 35.215ZM129.796 20.17C129.809 18.4912 129.183 16.8704 128.044 15.637C127.509 15.0616 126.864 14.5992 126.147 14.277C125.42 13.9496 124.631 13.7824 123.834 13.787C123.015 13.787 122.244 13.951 121.521 14.277C120.804 14.5992 120.159 15.0616 119.624 15.637C118.485 16.8703 117.858 18.4911 117.871 20.17C117.858 21.8489 118.485 23.4698 119.624 24.703C120.159 25.2784 120.804 25.7408 121.521 26.063C122.244 26.389 123.015 26.553 123.834 26.553C124.654 26.553 125.424 26.389 126.147 26.063C126.864 25.7408 127.509 25.2784 128.044 24.703C129.183 23.4698 129.81 21.8489 129.797 20.17H129.796ZM135 20.17C135 21.741 134.71 23.198 134.133 24.54C133.578 25.8474 132.767 27.0306 131.748 28.02C130.718 29.0113 129.51 29.7991 128.188 30.342C126.808 30.9137 125.328 31.2034 123.834 31.194C122.292 31.194 120.847 30.91 119.498 30.342C118.18 29.7939 116.978 28.9998 115.957 28.002C114.94 27.0035 114.13 25.8145 113.572 24.503C112.994 23.162 112.704 21.717 112.704 20.17C112.704 18.647 113 17.214 113.59 15.873C114.161 14.5588 114.977 13.365 115.993 12.355C117.01 11.3481 118.213 10.5478 119.534 9.998C120.895 9.42749 122.358 9.1377 123.834 9.146C125.376 9.146 126.827 9.43 128.188 9.998C129.51 10.5406 130.718 11.328 131.748 12.319C132.77 13.3134 133.581 14.5038 134.133 15.819C134.711 17.172 135 18.623 135 20.169V20.17ZM110.898 30.54C110.488 30.733 110.024 30.89 109.506 31.011C108.979 31.1332 108.439 31.1943 107.898 31.193C107.128 31.193 106.387 31.09 105.676 30.885C104.99 30.6925 104.355 30.3518 103.816 29.887C103.286 29.428 102.864 28.83 102.55 28.092C102.237 27.355 102.08 26.467 102.08 25.427V0.552H107.393V24.522C107.393 25.392 107.567 25.99 107.916 26.316C108.266 26.643 108.681 26.806 109.163 26.806C109.765 26.806 110.343 26.625 110.898 26.262V30.542V30.54ZM99.732 9.654L90.337 34.566C89.638 36.428 88.723 37.769 87.59 38.591C86.458 39.413 85.109 39.824 83.543 39.824C82.994 39.8214 82.4475 39.7485 81.917 39.607L80.183 34.747C80.592 34.941 81.013 35.092 81.447 35.201C81.881 35.31 82.29 35.364 82.676 35.364C83.495 35.364 84.242 35.177 84.916 34.802C85.591 34.427 86.109 33.732 86.47 32.717L87.193 30.614L79.135 9.654H84.808L89.614 23.144L94.131 9.654H99.731H99.732ZM77.87 6.499H64.283V13.244H77.689V17.813H64.283V30.65H58.79V1.676H77.87V6.499V6.499Z" fill="#222288"/>
</svg>
